<?xml version="1.0" encoding="UTF-8"?>
<svg id="Layer_1" xmlns="http://www.w3.org/2000/svg" version="1.1" viewBox="0 0 184.8 87.7">
  <!-- Generator: Adobe Illustrator 29.1.0, SVG Export Plug-In . SVG Version: 2.1.0 Build 142)  -->
  <defs>
    <style>
      .st0 {
        fill: none;
      }

      .st1 {
        fill: #432d39;
      }

      .st2 {
        fill: #fefefe;
      }

      .st3 {
        fill: #442e3a;
      }
    </style>
  </defs>
  <g>
    <path class="st0" d="M75.1,40.2c0-12.9,0-25.8,0-38.8,0-.5-.1-.5-.6-.5-22.5,0-44.9,0-67.4,0-.5,0-.6,0-.6.5,0,25.8,0,51.7,0,77.5,0,.5.1.5.6.5,22.5,0,44.9,0,67.4,0,.5,0,.6,0,.6-.5,0-12.9,0-25.8,0-38.8ZM28.7,60.2c-1.7-.6-3.4-1.3-4.7-2.4-1.8-1.6-1.8-3.3,0-4.9.9-.8,2.1-1.5,3.3-2,2.6-1.1,5.4-1.7,8.3-1.9,0,0,.2,0,.3,0-.2.5-.5.9-.6,1.4-.3,1.5.9,2.8,2.3,3.4.2,0,.5.2.6,0,.2-.3-.2-.3-.4-.4-.1,0-.3-.2-.4-.2-1.8-1.1-1.8-3.1,0-4.2.4-.2.9-.2,1.6-.1-.5.6-.8,1.1-.9,1.8-.2,1.3,0,2,1.4,2.6.4.2.9.4,1.3.5.2,0,.5.2.6,0,.2-.3-.2-.3-.4-.4-.6-.2-1-.6-1.5-1-.7-.6-.7-1.4,0-2,.2-.2.5-.4.6-.7.7-1,1.7-1,2.8-.7-.2.3-.5.3-.8.5-.8.4-1.3,1.3-1,2.1.2.8,1.2,1.7,2.1,1.8.2,0,.5,0,.6-.2.1-.3-.1-.3-.3-.4-1.1-.7-1.2-1.5-.2-2.3.5-.4,1.1-.8,1.6-1.1.2-.1.4-.1.6,0,3,.4,6,1.1,8.6,2.5.8.4,1.5.9,2.1,1.5,1.5,1.5,1.4,3.1,0,4.5-1.1,1-2.5,1.7-3.9,2.3-3.5,1.3-7.2,1.9-10.9,2-4.3.1-8.6-.3-12.7-1.6ZM58.9,57.6c0-.5.4-.8.9-1.1.5-.2.9,0,1.2.6.3.8.3,1.5,0,2.3-.4,2.3-2.1,3.7-4.5,4.6,0-.3.2-.5.3-.6,1.2-1.8,1.9-3.7,2.1-5.7ZM70.3,78c-2.5,0-5.1,0-7.6,0-6.4,0-12.7,0-19.1,0-.6,0-.8-.1-.9-.7-.2-2.5.3-4.9,1.9-7.1.9-1.3,2.2-2.3,3.9-2.9,1.4-.5,2.8-.8,4.4-1,2.1-.2,4.2-.7,6.1-1.6,3.1-1.4,5.3-4.2,4.9-7.6-.3-2.4-2-3.5-4.7-3-.3,0-.5,0-.6-.3-.5-1.6-1.8-2.7-3.4-3.6-2.7-1.5-5.7-2.2-8.8-2.7-.5,0-1,0-1.2-.8-.1-.6-.8-.9-1.3-1.3-.1-.1-.3-.2-.5,0-.2.1-.1.3,0,.4,0,0,0,0,.1.1.3.3.8.8.4,1.1-.3.3-1,0-1.5,0-.2,0-.2-.2-.1-.3.4-.9,0-1.5-.6-2.1-.7-.7-1.5-1.3-2.5-1.8-.3-.2-.7-.2-1.2-.1.6.5,1.2.9,1.7,1.4.6.5.9,1.2.9,2,0,.6-.4.9-1.1.9-.2,0-.4,0-.5,0-.7,0-1.2,0-1.4-.7,0-.5-.7-.8-1.3-1-.2,0-.3-.1-.5,0-.2.1,0,.3,0,.4,0,0,0,0,0,0,.9,1.4.9,1.4-.9,1.5-3.1.3-6.1,1.1-8.9,2.2-.9.4-1.8.9-2.6,1.4-1.8,1.2-2.7,2.8-2.6,4.8.1,2.2.9,4.3,1.8,6.3,1.2,2.7,3.5,3.9,6.6,4.2,1.8.2,3.4.7,4.9,1.5,2,1.1,3.2,2.6,3.8,4.4.6,1.6.8,3.3.8,4.9,0,.4-.1.5-.6.5-8.9,0-17.9,0-26.8,0-1.8,0-2.4-.6-2.4-2.1,0-10.7,0-21.4.1-32.1,0-1.7,0-3.5,0-5.2,0-.5.1-.6.7-.6.9,0,1.7,0,2.6.1.7,0,1,0,.9-.7,0-.7-.1-1.3,0-2,0-.4-.2-.5-.6-.5-1,0-1.9,0-2.9,0-.4,0-.7,0-.7-.4,0-.4,0-.7.6-.7.9,0,1.9-.1,2.8-.1.4,0,.6-.1.6-.5,0-.6-.3-1.3,0-1.9,0-.3-.3-.3-.6-.3-.9,0-1.9,0-2.8,0-.4,0-.5-.1-.5-.5,0-4.7,0-9.5,0-14.2,0-3,0-5.9.2-8.9,0-.7.1-1.5.7-2.1.3-.4.7-.6,1.2-.7.9,0,1.8,0,2.7.4,3.3,1.5,6.2,3.3,9,5.3,2.4,1.7,4.9,3.4,7.3,5.1.3.2.5.3.8.3,6.4,0,12.8,0,19.2,0,.4,0,.7-.2.9-.4,3.7-2.6,7.3-5.3,11.1-7.7,1.6-1.1,3.5-1.8,5.2-2.7.8-.4,1.7-.4,2.5-.3.9.1,1.6.8,1.7,1.8.2,1.7.3,3.5.3,5.2,0,5.8,0,11.7.1,17.5,0,.5-.2.7-.7.7-.8,0-1.6.3-2.4.4-.5,0-.7.3-.7.8,0,1.7,0,1.7,1.9,1.6.4,0,.7,0,1.1,0,.3,0,.8-.3.8.4,0,.5,0,.8-.8.8-.8,0-1.6.2-2.4.2-.4,0-.6.2-.6.6,0,.6,0,1.3,0,1.9-.1.5.2.8.9.7.8,0,1.5-.1,2.3-.2.6,0,.7.1.7.6,0,4.2,0,8.4,0,12.6,0,7.2,0,14.4,0,21.6,0,1.4,0,2.8,0,4.2,0,1.5-.6,2.1-2.3,2.1Z"/>
    <path class="st2" d="M56.3,57.6c-1.1,1-2.5,1.7-3.9,2.3-3.5,1.3-7.2,1.9-10.9,2-4.3.1-8.6-.3-12.7-1.6-1.7-.6-3.4-1.3-4.7-2.4-1.8-1.6-1.8-3.3,0-4.9.9-.8,2.1-1.5,3.3-2,2.6-1.1,5.4-1.7,8.3-1.9,0,0,.2,0,.3,0-.2.5-.5.9-.6,1.4-.3,1.5.9,2.8,2.3,3.4.2,0,.5.2.6,0,.2-.3-.2-.3-.4-.4-.1,0-.3-.2-.4-.2-1.8-1.1-1.8-3.1,0-4.2.4-.2.9-.2,1.6-.1-.5.6-.8,1.1-.9,1.8-.2,1.3,0,2,1.4,2.6.4.2.9.4,1.3.5.2,0,.5.2.6,0,.2-.3-.2-.3-.4-.4-.6-.2-1-.6-1.5-1-.7-.6-.7-1.4,0-2,.2-.2.5-.4.6-.7.7-1,1.7-1,2.8-.7-.2.3-.5.3-.8.5-.8.4-1.3,1.3-1,2.1.2.8,1.2,1.7,2.1,1.8.2,0,.5,0,.6-.2.1-.3-.1-.3-.3-.4-1.1-.7-1.2-1.5-.2-2.3.5-.4,1.1-.8,1.6-1.1.2-.1.4-.1.6,0,3,.4,6,1.1,8.6,2.5.8.4,1.5.9,2.1,1.5,1.5,1.5,1.4,3.1,0,4.5Z"/>
    <path class="st2" d="M61.1,59.4c-.4,2.3-2.1,3.7-4.5,4.6,0-.3.2-.5.3-.6,1.2-1.8,1.9-3.7,2.1-5.7,0-.5.4-.8.9-1.1.5-.2.9,0,1.2.6.3.8.3,1.5,0,2.3Z"/>
    <path class="st2" d="M72.6,71.7c0-7.2,0-14.4,0-21.6,0-4.2,0-8.4,0-12.6,0-.5-.1-.6-.7-.6-.8,0-1.5.2-2.3.2-.6,0-1-.2-.9-.7.1-.6,0-1.3,0-1.9,0-.4.2-.5.6-.6.8,0,1.6-.2,2.4-.2.7,0,.8-.3.8-.8,0-.6-.5-.3-.8-.4-.4,0-.7,0-1.1,0-1.9,0-1.9,0-1.9-1.6,0-.5.2-.7.7-.8.8-.1,1.6-.3,2.4-.4.5,0,.7-.2.7-.7,0-5.8,0-11.7-.1-17.5,0-1.7,0-3.5-.3-5.2-.1-1-.8-1.7-1.7-1.8-.9-.1-1.8,0-2.5.3-1.8.9-3.6,1.6-5.2,2.7-3.8,2.4-7.4,5.2-11.1,7.7-.3.2-.5.4-.9.4-6.4,0-12.8,0-19.2,0-.3,0-.6,0-.8-.3-2.4-1.7-4.9-3.4-7.3-5.1-2.8-2-5.8-3.9-9-5.3-.9-.4-1.8-.5-2.7-.4-.5,0-.9.3-1.2.7-.5.6-.6,1.4-.7,2.1-.2,3-.2,5.9-.2,8.9,0,4.7,0,9.5,0,14.2,0,.4.1.5.5.5.9,0,1.9,0,2.8,0,.3,0,.6,0,.6.3-.2.7,0,1.3,0,1.9,0,.4-.2.5-.6.5-.9,0-1.9.1-2.8.1-.6,0-.6.3-.6.7,0,.5.3.5.7.4,1,0,1.9,0,2.9,0,.4,0,.7.1.6.5-.1.7,0,1.3,0,2,0,.7-.3.8-.9.7-.9,0-1.7,0-2.6-.1-.6,0-.7.2-.7.6,0,1.7,0,3.5,0,5.2,0,10.7,0,21.4-.1,32.1,0,1.6.6,2.1,2.4,2.1,8.9.1,17.9,0,26.8,0,.5,0,.6-.2.6-.5,0-1.7-.2-3.3-.8-4.9-.6-1.9-1.8-3.4-3.8-4.4-1.5-.8-3.1-1.3-4.9-1.5-3.1-.3-5.4-1.5-6.6-4.2-.9-2.1-1.7-4.1-1.8-6.3-.1-2,.8-3.6,2.6-4.8.8-.6,1.7-1.1,2.6-1.4,2.8-1.1,5.8-2,8.9-2.2,1.8-.2,1.8-.2.9-1.5,0,0,0,0,0,0,0-.1-.2-.3,0-.4.2-.1.3,0,.5,0,.5.2,1.2.5,1.3,1,.1.8.7.8,1.4.7.2,0,.4,0,.5,0,.7,0,1.1-.2,1.1-.9,0-.8-.2-1.5-.9-2-.5-.4-1.1-.9-1.7-1.4.5-.1.9,0,1.2.1,1,.5,1.8,1.1,2.5,1.8.6.6,1,1.3.6,2.1,0,.1,0,.3.1.3.5,0,1.2.3,1.5,0,.3-.3-.1-.8-.4-1.1,0,0,0,0-.1-.1-.1-.1-.2-.3,0-.4.2-.1.3,0,.5,0,.5.4,1.2.7,1.3,1.3.1.7.7.7,1.2.8,3.1.5,6.1,1.2,8.8,2.7,1.6.9,2.9,2,3.4,3.6,0,.3.2.3.6.3,2.6-.5,4.4.6,4.7,3,.4,3.4-1.8,6.1-4.9,7.6-1.9.9-3.9,1.4-6.1,1.6-1.5.1-3,.5-4.4,1-1.7.5-3,1.5-3.9,2.9-1.5,2.2-2,4.5-1.9,7.1,0,.5.3.7.9.7,6.4,0,12.7,0,19.1,0,2.5,0,5.1,0,7.6,0,1.7,0,2.3-.6,2.3-2.1,0-1.4,0-2.8,0-4.2ZM21.9,16.2c-.6.5-1.2.8-1.9,1.1-1.4.7-3,1.2-4.4,2-.8.5-1.4.2-1.6-.7-.2-.9-.1-1.8-.1-2.7,0-1,0-2.1-.1-3.2,0-.8.3-1,1.2-.8.5,0,1,.4,1.5.6,1.5.6,3,1.3,4.6,1.9.3.1.6.3.9.4.6.4.7.9,0,1.4ZM24.8,26.7c.7,0,1.4,0,2.1,0,.2,0,.3.1.3.3,0,.2-.2.2-.4.2h-1s-1,0-1,0c-.2,0-.4,0-.4-.2,0-.2.1-.3.3-.3ZM25.4,32.8c-1.2,0-2.1-.8-2.1-1.8,0-1.2,1-2.2,2.2-2.1,1.3,0,2.2.8,2.1,1.8,0,1.1-1,2.1-2.2,2.1ZM43,34.6c-.3.6-.9.3-1.4,0,0,.2,0,.3,0,.4,0,.5,0,1.1-.8,1.2-.6.1-1.3-.3-1.5-.8-.1-.5-.3-.8-1-.6-.3,0-.6-.2-.7-.4,0-.3,0-.5.3-.7.9-.7,3.3-.8,4.3-.3.5.3.9.6.6,1.1ZM56,26.9c.3,0,.7,0,1.1,0,.2,0,.3,0,.3.3,0,.2-.2.2-.3.2-.3,0-.7,0-1.2,0-.2,0-.9.3-.9-.2,0-.5.7-.2,1.1-.3ZM56.6,32.7c-1.1,0-2.1-1-2.1-2.1,0-1,.8-1.8,1.8-1.8,1.2,0,2.6,1,2.6,2,0,.9-1.2,1.9-2.3,1.9ZM67.8,18.9h0c0,1.9-.9,2-2.2,1.3-1.8-.8-3.6-1.6-5.5-2.2-1.4-.5-1.5-1-.4-2,1.4-1.3,3.1-2.5,4.7-3.7,1.2-.9,2.3-.5,2.6.8.4,1.9.6,3.8.9,5.8,0,0,0,0,0,0Z"/>
    <path class="st1" d="M72.6,71.7c0-7.2,0-14.4,0-21.6,0-4.2,0-8.4,0-12.6,0-.5-.1-.6-.7-.6-.8,0-1.5.2-2.3.2-.6,0-1-.2-.9-.7.1-.6,0-1.3,0-1.9,0-.4.2-.5.6-.6.8,0,1.6-.2,2.4-.2.7,0,.8-.3.8-.8,0-.6-.5-.3-.8-.4-.4,0-.7,0-1.1,0-1.9,0-1.9,0-1.9-1.6,0-.5.2-.7.7-.8.8-.1,1.6-.3,2.4-.4.5,0,.7-.2.7-.7,0-5.8,0-11.7-.1-17.5,0-1.7,0-3.5-.3-5.2-.1-1-.8-1.7-1.7-1.8-.9-.1-1.8,0-2.5.3-1.8.9-3.6,1.6-5.2,2.7-3.8,2.4-7.4,5.2-11.1,7.7-.3.2-.5.4-.9.4-6.4,0-12.8,0-19.2,0-.3,0-.6,0-.8-.3-2.4-1.7-4.9-3.4-7.3-5.1-2.8-2-5.8-3.9-9-5.3-.9-.4-1.8-.5-2.7-.4-.5,0-.9.3-1.2.7-.5.6-.6,1.4-.7,2.1-.2,3-.2,5.9-.2,8.9,0,4.7,0,9.5,0,14.2,0,.4.1.5.5.5.9,0,1.9,0,2.8,0,.3,0,.6,0,.6.3-.2.7,0,1.3,0,1.9,0,.4-.2.5-.6.5-.9,0-1.9.1-2.8.1-.6,0-.6.3-.6.7,0,.5.3.5.7.4,1,0,1.9,0,2.9,0,.4,0,.7.1.6.5-.1.7,0,1.3,0,2,0,.7-.3.8-.9.7-.9,0-1.7,0-2.6-.1-.6,0-.7.2-.7.6,0,1.7,0,3.5,0,5.2,0,10.7,0,21.4-.1,32.1,0,1.6.6,2.1,2.4,2.1,8.9.1,17.9,0,26.8,0,.5,0,.6-.2.6-.5,0-1.7-.2-3.3-.8-4.9-.6-1.9-1.8-3.4-3.8-4.4-1.5-.8-3.1-1.3-4.9-1.5-3.1-.3-5.4-1.5-6.6-4.2-.9-2.1-1.7-4.1-1.8-6.3-.1-2,.8-3.6,2.6-4.8.8-.6,1.7-1.1,2.6-1.4,2.8-1.1,5.8-2,8.9-2.2,1.8-.2,1.8-.2.9-1.5,0,0,0,0,0,0,0-.1-.2-.3,0-.4.2-.1.3,0,.5,0,.5.2,1.2.5,1.3,1,.1.8.7.8,1.4.7.2,0,.4,0,.5,0,.7,0,1.1-.2,1.1-.9,0-.8-.2-1.5-.9-2-.5-.4-1.1-.9-1.7-1.4.5-.1.9,0,1.2.1,1,.5,1.8,1.1,2.5,1.8.6.6,1,1.3.6,2.1,0,.1,0,.3.1.3.5,0,1.2.3,1.5,0,.3-.3-.1-.8-.4-1.1,0,0,0,0-.1-.1-.1-.1-.2-.3,0-.4.2-.1.3,0,.5,0,.5.4,1.2.7,1.3,1.3.1.7.7.7,1.2.8,3.1.5,6.1,1.2,8.8,2.7,1.6.9,2.9,2,3.4,3.6,0,.3.2.3.6.3,2.6-.5,4.4.6,4.7,3,.4,3.4-1.8,6.1-4.9,7.6-1.9.9-3.9,1.4-6.1,1.6-1.5.1-3,.5-4.4,1-1.7.5-3,1.5-3.9,2.9-1.5,2.2-2,4.5-1.9,7.1,0,.5.3.7.9.7,6.4,0,12.7,0,19.1,0,2.5,0,5.1,0,7.6,0,1.7,0,2.3-.6,2.3-2.1,0-1.4,0-2.8,0-4.2ZM21.9,16.2c-.6.5-1.2.8-1.9,1.1-1.4.7-3,1.2-4.4,2-.8.5-1.4.2-1.6-.7-.2-.9-.1-1.8-.1-2.7,0-1,0-2.1-.1-3.2,0-.8.3-1,1.2-.8.5,0,1,.4,1.5.6,1.5.6,3,1.3,4.6,1.9.3.1.6.3.9.4.6.4.7.9,0,1.4ZM24.8,26.7c.7,0,1.4,0,2.1,0,.2,0,.3.1.3.3,0,.2-.2.2-.4.2h-1s-1,0-1,0c-.2,0-.4,0-.4-.2,0-.2.1-.3.3-.3ZM25.4,32.8c-1.2,0-2.1-.8-2.1-1.8,0-1.2,1-2.2,2.2-2.1,1.3,0,2.2.8,2.1,1.8,0,1.1-1,2.1-2.2,2.1ZM43,34.6c-.3.6-.9.3-1.4,0,0,.2,0,.3,0,.4,0,.5,0,1.1-.8,1.2-.6.1-1.3-.3-1.5-.8-.1-.5-.3-.8-1-.6-.3,0-.6-.2-.7-.4,0-.3,0-.5.3-.7.9-.7,3.3-.8,4.3-.3.5.3.9.6.6,1.1ZM56,26.9c.3,0,.7,0,1.1,0,.2,0,.3,0,.3.3,0,.2-.2.2-.3.2-.3,0-.7,0-1.2,0-.2,0-.9.3-.9-.2,0-.5.7-.2,1.1-.3ZM56.6,32.7c-1.1,0-2.1-1-2.1-2.1,0-1,.8-1.8,1.8-1.8,1.2,0,2.6,1,2.6,2,0,.9-1.2,1.9-2.3,1.9ZM67.8,18.9h0c0,1.9-.9,2-2.2,1.3-1.8-.8-3.6-1.6-5.5-2.2-1.4-.5-1.5-1-.4-2,1.4-1.3,3.1-2.5,4.7-3.7,1.2-.9,2.3-.5,2.6.8.4,1.9.6,3.8.9,5.8,0,0,0,0,0,0Z"/>
    <path class="st1" d="M56.3,57.6c-1.1,1-2.5,1.7-3.9,2.3-3.5,1.3-7.2,1.9-10.9,2-4.3.1-8.6-.3-12.7-1.6-1.7-.6-3.4-1.3-4.7-2.4-1.8-1.6-1.8-3.3,0-4.9.9-.8,2.1-1.5,3.3-2,2.6-1.1,5.4-1.7,8.3-1.9,0,0,.2,0,.3,0-.2.5-.5.9-.6,1.4-.3,1.5.9,2.8,2.3,3.4.2,0,.5.2.6,0,.2-.3-.2-.3-.4-.4-.1,0-.3-.2-.4-.2-1.8-1.1-1.8-3.1,0-4.2.4-.2.9-.2,1.6-.1-.5.6-.8,1.1-.9,1.8-.2,1.3,0,2,1.4,2.6.4.2.9.4,1.3.5.2,0,.5.2.6,0,.2-.3-.2-.3-.4-.4-.6-.2-1-.6-1.5-1-.7-.6-.7-1.4,0-2,.2-.2.5-.4.6-.7.7-1,1.7-1,2.8-.7-.2.3-.5.3-.8.5-.8.4-1.3,1.3-1,2.1.2.8,1.2,1.7,2.1,1.8.2,0,.5,0,.6-.2.1-.3-.1-.3-.3-.4-1.1-.7-1.2-1.5-.2-2.3.5-.4,1.1-.8,1.6-1.1.2-.1.4-.1.6,0,3,.4,6,1.1,8.6,2.5.8.4,1.5.9,2.1,1.5,1.5,1.5,1.4,3.1,0,4.5Z"/>
    <path class="st3" d="M61.1,59.4c-.4,2.3-2.1,3.7-4.5,4.6,0-.3.2-.5.3-.6,1.2-1.8,1.9-3.7,2.1-5.7,0-.5.4-.8.9-1.1.5-.2.9,0,1.2.6.3.8.3,1.5,0,2.3Z"/>
    <path class="st0" d="M67.9,18.9s0,0,0,0h0c0,1.9-.9,2-2.2,1.3-1.8-.8-3.6-1.6-5.5-2.2-1.4-.5-1.5-1-.4-2,1.4-1.3,3.1-2.5,4.7-3.7,1.2-.9,2.3-.5,2.6.8.4,1.9.6,3.8.9,5.8Z"/>
    <path class="st0" d="M21.9,16.2c-.6.5-1.2.8-1.9,1.1-1.4.7-3,1.2-4.4,2-.8.5-1.4.2-1.6-.7-.2-.9-.1-1.8-.1-2.7,0-1,0-2.1-.1-3.2,0-.8.3-1,1.2-.8.5,0,1,.4,1.5.6,1.5.6,3,1.3,4.6,1.9.3.1.6.3.9.4.6.4.7.9,0,1.4Z"/>
    <path class="st0" d="M27.5,30.7c0,1.1-1,2.1-2.2,2.1-1.2,0-2.1-.8-2.1-1.8,0-1.2,1-2.2,2.2-2.1,1.3,0,2.2.8,2.1,1.8Z"/>
    <path class="st0" d="M58.9,30.8c0,.9-1.2,1.9-2.3,1.9-1.1,0-2.1-1-2.1-2.1,0-1,.8-1.8,1.8-1.8,1.2,0,2.6,1,2.6,2Z"/>
    <path class="st0" d="M43,34.6c-.3.6-.9.3-1.4,0,0,.2,0,.3,0,.4,0,.5,0,1.1-.8,1.2-.6.1-1.3-.3-1.5-.8-.1-.5-.3-.8-1-.6-.3,0-.6-.2-.7-.4,0-.3,0-.5.3-.7.9-.7,3.3-.8,4.3-.3.5.3.9.6.6,1.1Z"/>
    <path class="st0" d="M27.2,27c0,.2-.2.2-.4.2h-1s-1,0-1,0c-.2,0-.4,0-.4-.2,0-.2.1-.3.3-.3.7,0,1.4,0,2.1,0,.2,0,.3.1.3.3Z"/>
    <path class="st0" d="M57.4,27.1c0,.2-.2.2-.3.2-.3,0-.7,0-1.2,0-.2,0-.9.3-.9-.2,0-.5.7-.2,1.1-.3.3,0,.7,0,1.1,0,.2,0,.3,0,.3.3Z"/>
  </g>
  <g>
    <path class="st1" d="M14.1,81.9c0,0,.1,0,.1,0,.2-.2.1-.2.3-.3.2-.2.2-.1.4-.3.2-.2.1-.2.3-.3.2-.2.2-.1.3-.3.2-.2.1-.2.3-.3l.3-.3c.2-.2.1-.2.3-.3.1-.1.5-.2.5-.2.4,0,.6.3.6.6s0,.2,0,.4,0,.2,0,.4,0,.2,0,.4,0,.2,0,.4v.4c0,.2,0,.2,0,.4s0,.2,0,.4,0,.2,0,.4,0,.2,0,.4,0,.2,0,.4,0,.2,0,.4,0,.2,0,.4v.4c0,.4-.3.6-.6.6-.3,0-.6-.3-.6-.6v-.4c0-.2,0-.2,0-.4s0-.2,0-.4,0-.2,0-.4,0-.2,0-.4v-.4c0-.2,0-.2,0-.4v-.4c0-.2,0-.2,0-.4s0-.1-.1-.1-.4.3-.4.3c-.2.2-.1.2-.3.3s-.2.1-.4.3c-.2.2-.1.2-.3.3-.2.2-.1.2-.3.3,0,0-.2.1-.3.1s-.2,0-.3-.1l-.3-.3c-.2-.2-.2-.1-.4-.3l-1-1s0,0-.1,0c0,0-.1,0-.1.1,0,.2,0,.2,0,.4s0,.2,0,.4,0,.2,0,.4,0,.2,0,.4v.4c0,.2,0,.2,0,.4s0,.2,0,.4,0,.2,0,.4,0,.2,0,.4c0,.3-.3.6-.6.6s-.7-.3-.7-.6,0-.2,0-.4,0-.2,0-.4,0-.2,0-.4,0-.2,0-.4,0-.2,0-.4,0-.2,0-.4,0-.2,0-.4,0-.2,0-.4v-.4c0-.2,0-.2,0-.4s0-.2,0-.4,0-.2,0-.4,0-.2,0-.4,0-.3.2-.4c.1-.1.5-.1.5-.1.2,0,.4,0,.5.1l.3.3c.2.2.1.2.3.3.2.2.1.2.3.3.2.2.2.1.4.3.2.2.1.2.3.3.2.2.2.1.4.3.2.2.2.2.4.3,0,0,0,0,.1,0Z"/>
    <path class="st1" d="M19.6,86.2c-.3,0-.7-.3-.7-.6s0-.2,0-.4,0-.2,0-.4,0-.2,0-.4,0-.2,0-.4,0-.2,0-.4,0-.2,0-.4,0-.2,0-.4v-.4c0-.2,0-.2,0-.4s0-.2,0-.4,0-.2,0-.4,0-.2,0-.4v-.4c0-.3.2-.6.6-.6h2c.2,0,.2,0,.5,0s.2,0,.5,0c.4,0,.6.3.6.6s-.3.6-.6.6-.2,0-.5,0-.2,0-.5,0-.2,0-.5,0-.2,0-.5,0-.4.2-.4.4,0,.2,0,.3,0,.2,0,.3.2.3.4.3.2,0,.5,0,.2,0,.5,0,.2,0,.5,0,.3,0,.4.2.2.4.2.4c0,.3-.3.6-.6.6s-.2,0-.5,0-.2,0-.5,0-.2,0-.5,0-.4.2-.4.4,0,.3,0,.5,0,.3,0,.5.2.4.4.4.2,0,.5,0,.2,0,.5,0,.2,0,.5,0,.2,0,.5,0c.4,0,.6.2.6.6,0,.4-.2.6-.6.6s-.2,0-.5,0-.2,0-.5,0-.2,0-.5,0-.2,0-.5,0-.2,0-.5,0h-.5Z"/>
    <path class="st1" d="M25.6,79.5c.3,0,.4.3.4.5s0,.2,0,.4v.8c0,.2,0,.2,0,.4v.4c0,.2,0,.2,0,.4s0,.2,0,.4,0,.2,0,.4,0,.2,0,.4,0,.2,0,.4,0,.2,0,.4.2.4.4.4.3,0,.5,0,.3,0,.5,0,.3,0,.5,0,.3,0,.5,0,.6.2.6.6c0,.4-.2.6-.6.6s-.2,0-.4,0-.2,0-.4,0-.2,0-.4,0-.2,0-.4,0-.2,0-.4,0-.2,0-.4,0-.2,0-.4,0-.7-.4-.7-.6v-.4c0-.2,0-.2,0-.4s0-.2,0-.4,0-.2,0-.4v-.4c0-.2,0-.2,0-.4s0-.2,0-.4,0-.2,0-.4,0-.2,0-.4,0-.2,0-.4v-1.3c0-.4.3-.6.8-.6Z"/>
    <path class="st1" d="M31.5,79.5c.3,0,.4.3.4.5s0,.2,0,.4v.8c0,.2,0,.2,0,.4v.4c0,.2,0,.2,0,.4s0,.2,0,.4,0,.2,0,.4,0,.2,0,.4,0,.2,0,.4,0,.2,0,.4.2.4.4.4.3,0,.5,0,.3,0,.5,0,.3,0,.5,0,.3,0,.5,0,.6.2.6.6c0,.4-.2.6-.6.6s-.2,0-.4,0-.2,0-.4,0-.2,0-.4,0-.2,0-.4,0-.2,0-.4,0-.2,0-.4,0-.2,0-.4,0-.7-.4-.7-.6v-.4c0-.2,0-.2,0-.4s0-.2,0-.4,0-.2,0-.4v-.4c0-.2,0-.2,0-.4s0-.2,0-.4,0-.2,0-.4,0-.2,0-.4,0-.2,0-.4v-1.3c0-.4.3-.6.8-.6Z"/>
    <path class="st1" d="M42.4,80.7c.1.1.2.3.3.4,0,.1.1.3.2.4.2.4.3.9.3,1.4,0,.8,0,1.1-.5,1.8-.1.2-.8.9-.9,1,0,0-.8.4-.8.4-.5.2-.9.2-1.4.2s-.3,0-.5,0c0,0,0,0-.1,0h-.1c0,0-.1,0-.2,0-.2,0-.3-.1-.4-.2-.6-.2-1.1-.6-1.5-1,0,0-.5-.7-.5-.8,0-.2-.2-.7-.2-.9,0-.1,0-.3,0-.5s0-.3,0-.5c0-.2.1-.3.2-.4.1-.4.3-.9.6-1.3.5-.5,1.2-1,2-1.1.1,0,.3,0,.5,0,.2,0,.3,0,.5,0s.3,0,.5,0c.2,0,.3,0,.4.1.2,0,.3,0,.5,0,.1,0,.3,0,.4.1.1,0,.6.4.7.6.1.1.3.2.4.3ZM39.5,85c.2,0,.3,0,.5,0,.3,0,.6-.1.9-.3,0,0,.6-.5.7-.6.2-.3.4-.9.4-1.3s0-.7-.2-.9c0,0-.4-.6-.5-.7-.1-.1-.6-.4-.8-.5-.1,0-.3,0-.5,0-.2,0-.3-.1-.5-.1s-.3,0-.5,0c-.2,0-.6.2-.8.3-.8.4-1,1-1,1.8s0,.3,0,.4c0,.2.2.6.3.8.2.4.3.4.7.6,0,0,.8.3.9.3.2,0,.3,0,.5,0h0Z"/>
    <path class="st1" d="M49.1,82.7c.3.3.5,1,.5,1.4s0,.3,0,.5c0,.2-.1.3-.2.4,0,.1,0,.3-.2.4,0,0-.6.5-.8.5-.4.2-.8.3-1.3.3s-.2,0-.5,0-.2,0-.5,0-.2,0-.5,0-.2,0-.5,0c-.4,0-.6-.1-.6-.6s0-.2,0-.4,0-.2,0-.4,0-.2,0-.4,0-.2,0-.4,0-.2,0-.4,0-.2,0-.4,0-.2,0-.4,0-.2,0-.4,0-.2,0-.4,0-.2,0-.4v-.4c0-.2,0-.2,0-.4s0-.2,0-.4c0-.4.2-.6.6-.6s.3,0,.5,0,.3,0,.5,0,.3,0,.5,0c.5,0,.6,0,1,.3.6.3,1,.9,1,1.6s0,.6-.3,1c0,0,0,.2,0,.2.1,0,.4.1.5.2ZM45.9,83.5c0,.2,0,.2,0,.4,0,.2,0,.2,0,.4s0,.2,0,.4.2.3.4.3.2,0,.4,0,.2,0,.4,0,.3,0,.4,0c.4,0,.8-.5.8-.9,0-.6-.6-.9-1.2-.9s-.2,0-.4,0-.2,0-.4,0-.4.2-.4.4h0ZM46.9,82c0,0,.2,0,.4-.1.3-.1.4-.3.4-.6s0-.3,0-.4c-.1-.2-.4-.3-.7-.3s-.3,0-.5,0-.4.1-.4.3c0,.3,0,.3,0,.6s.1.4.4.4.3,0,.5,0h0Z"/>
    <path class="st1" d="M54.9,83c-.2.1-.3.3-.5.3,0,0-.1.1,0,.2.1.2.2.2.3.3.1.2,0,.2.2.4.1.2.1.2.3.4.1.2.1.2.3.4.1.2.1.2.2.4,0,.1.1.3,0,.4,0,.3-.3.5-.6.5-.4-.1-.6-.3-.8-.6-.1-.2-.1-.2-.3-.4-.1-.2-.1-.2-.3-.4-.1-.2-.1-.2-.2-.4-.1-.2-.1-.2-.2-.4l-.2-.4c0-.1-.2-.2-.4-.2h0c-.2,0-.3.2-.3.3s0,.2,0,.5,0,.2,0,.5,0,.2,0,.5v.5c0,.3-.3.6-.6.6h0c-.3,0-.6-.3-.6-.6s0-.2,0-.4v-.8c0-.2,0-.2,0-.4s0-.2,0-.4,0-.2,0-.4,0-.2,0-.4,0-.2,0-.4v-.4c0-.2,0-.2,0-.4s0-.2,0-.4v-.4c0-.2,0-.2,0-.4s.3-.6.6-.6h.9c.2,0,.2,0,.4,0s.2,0,.4,0,.7,0,.8.1c.1,0,.2.2.4.2.1,0,.3,0,.4.2,0,0,.4.6.5.7,0,0,.2.7.2.8,0,.3-.2.9-.4,1.2,0,.1-.2.2-.3.3h0ZM52.3,81.5q0,.2,0,.4c0,.2.2.4.4.4s.2,0,.3,0,.2,0,.3,0,.3,0,.5-.2c.4-.2.5-.2.5-.7s0-.3,0-.4c-.1-.2-.6-.4-.9-.4s-.2,0-.3,0c-.3,0-.8,0-.8.4s0,.2,0,.5Z"/>
    <path class="st1" d="M57.9,86.2c-.3,0-.7-.3-.7-.6s0-.2,0-.4,0-.2,0-.4,0-.2,0-.4,0-.2,0-.4,0-.2,0-.4,0-.2,0-.4,0-.2,0-.4v-.4c0-.2,0-.2,0-.4s0-.2,0-.4,0-.2,0-.4,0-.2,0-.4v-.4c0-.3.2-.6.6-.6h2c.2,0,.2,0,.5,0s.2,0,.5,0,.6.3.6.6-.3.6-.6.6-.2,0-.5,0-.2,0-.5,0-.2,0-.5,0-.2,0-.5,0-.4.2-.4.4,0,.2,0,.3,0,.2,0,.3.2.3.4.3.2,0,.5,0,.2,0,.5,0,.2,0,.5,0,.3,0,.4.2.2.4.2.4c0,.3-.3.6-.6.6s-.2,0-.5,0-.2,0-.5,0-.2,0-.5,0-.4.2-.4.4,0,.3,0,.5,0,.3,0,.5.2.4.4.4.2,0,.5,0,.2,0,.5,0,.2,0,.5,0,.2,0,.5,0c.4,0,.6.2.6.6,0,.4-.2.6-.6.6s-.2,0-.5,0-.2,0-.5,0-.2,0-.5,0-.2,0-.5,0-.2,0-.5,0h-.5Z"/>
    <path class="st1" d="M68.5,84.1c0,0,0,0,.1,0,0-.2.1-.2.2-.4,0-.2,0-.2.1-.4l.2-.4c0-.2.1-.2.2-.4l.5-1.2c0-.2,0-.2.1-.4,0-.2.1-.2.2-.4,0-.2,0-.2.1-.4,0-.1.2-.2.3-.3.1,0,.4,0,.4,0,.3,0,.5.1.6.4,0,.1,0,.3,0,.4l-.2.4c0,.2,0,.2-.1.4,0,.2-.1.2-.2.4,0,.2,0,.2-.1.4,0,.2-.1.2-.2.4s0,.2-.1.4l-.2.4c0,.2,0,.2-.2.4s-.1.2-.2.4c0,.2,0,.2-.1.4,0,.2-.1.2-.2.4s0,.2-.1.4l-.2.4c0,.1-.2.3-.3.4-.1,0-.5,0-.5,0-.3,0-.7-.2-.8-.5-.1-.2-.1-.2-.2-.5s0-.3-.1-.5c0,0,0,0-.1,0s-.1,0-.1,0c-.1.2-.1.2-.2.5,0,.2-.3.8-.5.9-.1,0-.5.1-.5.1-.3,0-.6-.2-.7-.5,0-.2-.1-.2-.2-.4,0-.2,0-.2-.1-.4,0-.2-.1-.2-.2-.4,0-.2,0-.2-.1-.4l-.2-.4c0-.2-.1-.2-.2-.4s0-.2-.1-.4l-.2-.4c0-.2,0-.2-.1-.4,0-.2-.1-.2-.2-.4s0-.2-.1-.4c0-.2-.1-.2-.2-.4l-.2-.4c0-.1,0-.3,0-.4,0-.3.3-.4.6-.4.2,0,.5.2.6.4,0,.2,0,.2.1.4,0,.2.1.2.2.4l.2.4c0,.2,0,.2.1.4,0,.2,0,.2.1.4,0,.2.2.2.2.4,0,.2,0,.2.1.4s.1.2.2.4c0,.2,0,.2.1.4l.2.4c0,0,0,0,.1,0s.1,0,.1,0c.1-.3,0-.3.2-.5l.2-.5c.1-.3.4-.5.8-.5s.7.2.8.5v.5c.2.3.2.2.3.5,0,0,0,0,0,0Z"/>
  </g>
</svg>