<?xml version="1.0" encoding="UTF-8"?>
<svg id="Layer_1" xmlns="http://www.w3.org/2000/svg" xmlns:xlink="http://www.w3.org/1999/xlink" version="1.1" viewBox="0 0 122.5 81.8">
  <!-- Generator: Adobe Illustrator 29.6.0, SVG Export Plug-In . SVG Version: 2.1.1 Build 207)  -->
  <defs>
    <style>
      .st0, .st1, .st2 {
        fill: none;
      }

      .st3 {
        fill: #fff0f6;
      }

      .st4 {
        isolation: isolate;
      }

      .st5 {
        fill: #ffb3de;
        stroke: #2f1b8c;
        stroke-width: .3px;
      }

      .st5, .st6, .st1, .st2 {
        stroke-miterlimit: 10;
      }

      .st7 {
        clip-path: url(#clippath-1);
      }

      .st8 {
        fill: #2f1b8c;
      }

      .st6 {
        fill: #ff3f7c;
        stroke: #000;
        stroke-width: .2px;
      }

      .st9 {
        fill: #101010;
      }

      .st1 {
        stroke: #101010;
      }

      .st1, .st2 {
        stroke-width: .5px;
      }

      .st2 {
        stroke: #72f0f3;
      }

      .st10 {
        clip-path: url(#clippath);
      }
    </style>
    <clipPath id="clippath">
      <polygon class="st0" points="113.9 40.9 105.3 44.3 110.6 51.9 101.4 50.5 103.3 59.7 94.9 55.6 94.6 64.9 87.2 59.2 85.4 68.4 78.8 61.7 75.8 70.6 70.1 63.2 66.1 71.7 61.2 63.6 56.4 71.7 52.4 63.2 46.7 70.6 43.6 61.7 37.1 68.4 35.3 59.2 27.8 64.9 27.5 55.6 19.1 59.7 21.1 50.5 11.8 51.8 17.2 44.3 8.5 40.9 17.2 37.5 11.8 29.9 21.1 31.3 19.1 22.1 27.5 26.2 27.8 16.9 35.3 22.6 37.1 13.4 43.6 20.1 46.7 11.2 52.4 18.6 56.4 10.1 61.2 18.2 66.1 10.1 70.1 18.6 75.8 11.2 78.8 20.1 85.4 13.4 87.2 22.6 94.6 16.9 94.9 26.2 103.4 22.1 101.4 31.3 110.6 30 105.3 37.5 113.9 40.9"/>
    </clipPath>
    <clipPath id="clippath-1">
      <rect class="st0" x="1" y="-1.6" width="118.2" height="111.4"/>
    </clipPath>
  </defs>
  <g id="Layer_11" data-name="Layer_1">
    <polygon class="st8" points="119.2 40.9 109.6 44.6 115.5 52.9 105.4 51.5 107.5 61.5 98.3 57 98 67.3 89.8 61.1 87.8 71.2 80.6 63.8 77.2 73.6 71 65.4 66.6 74.7 61.2 65.9 55.9 74.7 51.5 65.4 45.2 73.6 41.9 63.8 34.7 71.2 32.7 61.1 24.5 67.3 24.2 57 14.9 61.5 17.1 51.5 6.9 52.9 12.8 44.6 3.3 40.9 12.8 37.2 6.9 28.9 17.1 30.3 14.9 20.3 24.2 24.8 24.5 14.5 32.7 20.7 34.7 10.6 41.9 18 45.2 8.2 51.5 16.4 55.9 7.1 61.2 15.9 66.6 7.1 71 16.4 77.2 8.2 80.6 18 87.8 10.6 89.8 20.7 98 14.5 98.3 24.8 107.5 20.3 105.4 30.3 115.5 28.9 109.6 37.2 119.2 40.9"/>
    <polygon class="st6" points="113.9 40.9 105.3 44.3 110.6 51.9 101.4 50.5 103.3 59.7 94.9 55.6 94.6 64.9 87.2 59.2 85.4 68.4 78.8 61.7 75.8 70.6 70.1 63.2 66.1 71.7 61.2 63.6 56.4 71.7 52.4 63.2 46.7 70.6 43.6 61.7 37.1 68.4 35.3 59.2 27.8 64.9 27.5 55.6 19.1 59.7 21.1 50.5 11.8 51.8 17.2 44.3 8.5 40.9 17.2 37.5 11.8 29.9 21.1 31.3 19.1 22.1 27.5 26.2 27.8 16.9 35.3 22.6 37.1 13.4 43.6 20.1 46.7 11.2 52.4 18.6 56.4 10.1 61.2 18.2 66.1 10.1 70.1 18.6 75.8 11.2 78.8 20.1 85.4 13.4 87.2 22.6 94.6 16.9 94.9 26.2 103.4 22.1 101.4 31.3 110.6 30 105.3 37.5 113.9 40.9"/>
  </g>
  <g id="Layer_2">
    <g class="st10">
      <g class="st7">
        <g>
          <path class="st5" d="M119.7,110.2H.5V-1.9h119.2v112.1ZM1.5,109.3h117.2V-1H1.5v110.2h0Z"/>
          <rect class="st5" x="1" y="96.9" width="118.2" height=".9"/>
          <rect class="st5" x="1" y="84.6" width="118.2" height=".9"/>
          <rect class="st5" x="1" y="72.2" width="118.2" height=".9"/>
          <rect class="st5" x="1" y="59.9" width="118.2" height=".9"/>
          <rect class="st5" x="1" y="47.5" width="118.2" height=".9"/>
          <rect class="st5" x="1" y="35.2" width="118.2" height=".9"/>
          <rect class="st5" x="1" y="22.8" width="118.2" height=".9"/>
          <rect class="st5" x="1" y="10.4" width="118.2" height=".9"/>
          <rect class="st5" x="105.5" y="-1.4" width="1" height="111.2"/>
          <rect class="st5" x="92.4" y="-1.4" width="1" height="111.2"/>
          <rect class="st5" x="79.3" y="-1.4" width="1" height="111.2"/>
          <rect class="st5" x="66.2" y="-1.4" width="1" height="111.2"/>
          <rect class="st5" x="53" y="-1.4" width="1" height="111.2"/>
          <rect class="st5" x="39.9" y="-1.4" width="1" height="111.2"/>
          <rect class="st5" x="26.8" y="-1.4" width="1" height="111.2"/>
          <rect class="st5" x="13.6" y="-1.4" width="1" height="111.2"/>
        </g>
      </g>
    </g>
  </g>
  <g id="Layer_3">
    <g class="st4">
      <g class="st4">
        <path class="st9" d="M11.1,46.8l2.2-1.5h.3c.6,1.1,1.5,1.6,2.5,1.6s1.6-.5,1.6-1.2-.4-1.1-2.7-2.1c-2.5-1-3.4-2.2-3.4-4.1s1.9-3.7,4.6-3.7,3.6.9,4.6,2.3l-2.2,1.6h-.3c-.5-.8-1.2-1.3-2.1-1.3s-1.3.4-1.3,1,.3.9,2.6,1.9c2.6,1.1,3.5,2.3,3.5,4s-2,4.2-4.9,4.2-3.9-.9-5-2.7Z"/>
        <path class="st9" d="M22.9,43.6v-7.5h3.2v7.2c0,2.3.7,3.2,2.5,3.2s2.5-.9,2.5-3.3v-7.2h3.2v7.5c0,3.8-1.9,5.9-5.7,5.9s-5.7-2-5.7-5.9Z"/>
        <path class="st9" d="M47.8,48.8v.3h-3.5l-3.2-4.9h-1.1v4.9h-3.2v-13.1h4.7c3.3,0,5,1.4,5,4.2s-.8,2.9-2.3,3.5l3.6,5.1ZM40,38.6v3.2h1.3c1.4,0,2.1-.5,2.1-1.6s-.7-1.6-2.1-1.6h-1.3Z"/>
        <path class="st9" d="M49,49.1v-13.1h4.6c3.3,0,5,1.5,5,4.3s-1.7,4.2-4.6,4.2h-1.7v4.6h-3.2ZM52.2,42h1.2c1.4,0,2.1-.5,2.1-1.7s-.7-1.7-2.1-1.7h-1.2v3.4Z"/>
        <path class="st9" d="M71.4,48.8v.3h-3.5l-3.2-4.9h-1.1v4.9h-3.2v-13.1h4.7c3.3,0,5,1.4,5,4.2s-.8,2.9-2.3,3.5l3.6,5.1ZM63.7,38.6v3.2h1.3c1.4,0,2.1-.5,2.1-1.6s-.7-1.6-2.1-1.6h-1.3Z"/>
        <path class="st9" d="M72.6,36h3.2v13.1h-3.2v-13.1Z"/>
        <path class="st9" d="M78.5,36h8.2l.3,2.7h-5.3v2.4h4.7v2.6h-4.7v2.7h5.3l-.3,2.7h-8.2v-13.1Z"/>
        <path class="st9" d="M95.1,38.9h-6.4v-2.8h11.9v.4l-6.9,9.8h6.6v2.9h-12v-.4l6.9-9.9Z"/>
        <path class="st9" d="M102.3,47.6c0-1,.8-1.8,1.8-1.8s1.8.8,1.8,1.8-.7,1.7-1.8,1.7-1.8-.8-1.8-1.7ZM102.7,44.7v-8.7c-.1,0,3.1,0,3.1,0v8.7h-3.1Z"/>
      </g>
      <g class="st4">
        <path class="st2" d="M11.1,46.8l2.2-1.5h.3c.6,1.1,1.5,1.6,2.5,1.6s1.6-.5,1.6-1.2-.4-1.1-2.7-2.1c-2.5-1-3.4-2.2-3.4-4.1s1.9-3.7,4.6-3.7,3.6.9,4.6,2.3l-2.2,1.6h-.3c-.5-.8-1.2-1.3-2.1-1.3s-1.3.4-1.3,1,.3.9,2.6,1.9c2.6,1.1,3.5,2.3,3.5,4s-2,4.2-4.9,4.2-3.9-.9-5-2.7Z"/>
        <path class="st2" d="M22.9,43.6v-7.5h3.2v7.2c0,2.3.7,3.2,2.5,3.2s2.5-.9,2.5-3.3v-7.2h3.2v7.5c0,3.8-1.9,5.9-5.7,5.9s-5.7-2-5.7-5.9Z"/>
        <path class="st2" d="M47.8,48.8v.3h-3.5l-3.2-4.9h-1.1v4.9h-3.2v-13.1h4.7c3.3,0,5,1.4,5,4.2s-.8,2.9-2.3,3.5l3.6,5.1ZM40,38.6v3.2h1.3c1.4,0,2.1-.5,2.1-1.6s-.7-1.6-2.1-1.6h-1.3Z"/>
        <path class="st2" d="M49,49.1v-13.1h4.6c3.3,0,5,1.5,5,4.3s-1.7,4.2-4.6,4.2h-1.7v4.6h-3.2ZM52.2,42h1.2c1.4,0,2.1-.5,2.1-1.7s-.7-1.7-2.1-1.7h-1.2v3.4Z"/>
        <path class="st2" d="M71.4,48.8v.3h-3.5l-3.2-4.9h-1.1v4.9h-3.2v-13.1h4.7c3.3,0,5,1.4,5,4.2s-.8,2.9-2.3,3.5l3.6,5.1ZM63.7,38.6v3.2h1.3c1.4,0,2.1-.5,2.1-1.6s-.7-1.6-2.1-1.6h-1.3Z"/>
        <path class="st2" d="M72.6,36h3.2v13.1h-3.2v-13.1Z"/>
        <path class="st2" d="M78.5,36h8.2l.3,2.7h-5.3v2.4h4.7v2.6h-4.7v2.7h5.3l-.3,2.7h-8.2v-13.1Z"/>
        <path class="st2" d="M95.1,38.9h-6.4v-2.8h11.9v.4l-6.9,9.8h6.6v2.9h-12v-.4l6.9-9.9Z"/>
        <path class="st2" d="M102.3,47.6c0-1,.8-1.8,1.8-1.8s1.8.8,1.8,1.8-.7,1.7-1.8,1.7-1.8-.8-1.8-1.7ZM102.7,44.7v-8.7c-.1,0,3.1,0,3.1,0v8.7h-3.1Z"/>
      </g>
    </g>
    <g class="st4">
      <g class="st4">
        <path class="st3" d="M12,45.2l2.2-1.5h.3c.6,1.1,1.5,1.6,2.5,1.6s1.6-.5,1.6-1.2-.4-1.1-2.7-2.1c-2.5-1-3.4-2.2-3.4-4.1s1.9-3.7,4.6-3.7,3.6.9,4.6,2.3l-2.2,1.6h-.3c-.5-.8-1.2-1.3-2.1-1.3s-1.3.4-1.3,1,.3.9,2.6,1.9c2.6,1.1,3.5,2.3,3.5,4s-2,4.2-4.9,4.2-3.9-.9-5-2.7Z"/>
        <path class="st3" d="M23.8,42v-7.5h3.2v7.2c0,2.3.7,3.2,2.5,3.2s2.5-.9,2.5-3.3v-7.2h3.2v7.5c0,3.8-1.9,5.9-5.7,5.9s-5.7-2-5.7-5.9Z"/>
        <path class="st3" d="M48.7,47.2v.3h-3.5l-3.2-4.9h-1.1v4.9h-3.2v-13.1h4.7c3.3,0,5,1.4,5,4.2s-.8,2.9-2.3,3.5l3.6,5.1ZM40.9,37v3.2h1.3c1.4,0,2.1-.5,2.1-1.6s-.7-1.6-2.1-1.6h-1.3Z"/>
        <path class="st3" d="M49.9,47.5v-13.1h4.6c3.3,0,5,1.5,5,4.3s-1.7,4.2-4.6,4.2h-1.7v4.6h-3.2ZM53.1,40.4h1.2c1.4,0,2.1-.5,2.1-1.7s-.7-1.7-2.1-1.7h-1.2v3.4Z"/>
        <path class="st3" d="M72.3,47.2v.3h-3.5l-3.2-4.9h-1.1v4.9h-3.2v-13.1h4.7c3.3,0,5,1.4,5,4.2s-.8,2.9-2.3,3.5l3.6,5.1ZM64.6,37v3.2h1.3c1.4,0,2.1-.5,2.1-1.6s-.7-1.6-2.1-1.6h-1.3Z"/>
        <path class="st3" d="M73.5,34.4h3.2v13.1h-3.2v-13.1Z"/>
        <path class="st3" d="M79.4,34.4h8.2l.3,2.7h-5.3v2.4h4.7v2.6h-4.7v2.7h5.3l-.3,2.7h-8.2v-13.1Z"/>
        <path class="st3" d="M96,37.3h-6.4v-2.8h11.9v.4l-6.9,9.8h6.6v2.9h-12v-.4l6.9-9.9Z"/>
        <path class="st3" d="M103.2,46c0-1,.8-1.8,1.8-1.8s1.8.8,1.8,1.8-.7,1.7-1.8,1.7-1.8-.8-1.8-1.7ZM103.6,43.1v-8.7c-.1,0,3.1,0,3.1,0v8.7h-3.1Z"/>
      </g>
      <g class="st4">
        <path class="st1" d="M12,45.2l2.2-1.5h.3c.6,1.1,1.5,1.6,2.5,1.6s1.6-.5,1.6-1.2-.4-1.1-2.7-2.1c-2.5-1-3.4-2.2-3.4-4.1s1.9-3.7,4.6-3.7,3.6.9,4.6,2.3l-2.2,1.6h-.3c-.5-.8-1.2-1.3-2.1-1.3s-1.3.4-1.3,1,.3.9,2.6,1.9c2.6,1.1,3.5,2.3,3.5,4s-2,4.2-4.9,4.2-3.9-.9-5-2.7Z"/>
        <path class="st1" d="M23.8,42v-7.5h3.2v7.2c0,2.3.7,3.2,2.5,3.2s2.5-.9,2.5-3.3v-7.2h3.2v7.5c0,3.8-1.9,5.9-5.7,5.9s-5.7-2-5.7-5.9Z"/>
        <path class="st1" d="M48.7,47.2v.3h-3.5l-3.2-4.9h-1.1v4.9h-3.2v-13.1h4.7c3.3,0,5,1.4,5,4.2s-.8,2.9-2.3,3.5l3.6,5.1ZM40.9,37v3.2h1.3c1.4,0,2.1-.5,2.1-1.6s-.7-1.6-2.1-1.6h-1.3Z"/>
        <path class="st1" d="M49.9,47.5v-13.1h4.6c3.3,0,5,1.5,5,4.3s-1.7,4.2-4.6,4.2h-1.7v4.6h-3.2ZM53.1,40.4h1.2c1.4,0,2.1-.5,2.1-1.7s-.7-1.7-2.1-1.7h-1.2v3.4Z"/>
        <path class="st1" d="M72.3,47.2v.3h-3.5l-3.2-4.9h-1.1v4.9h-3.2v-13.1h4.7c3.3,0,5,1.4,5,4.2s-.8,2.9-2.3,3.5l3.6,5.1ZM64.6,37v3.2h1.3c1.4,0,2.1-.5,2.1-1.6s-.7-1.6-2.1-1.6h-1.3Z"/>
        <path class="st1" d="M73.5,34.4h3.2v13.1h-3.2v-13.1Z"/>
        <path class="st1" d="M79.4,34.4h8.2l.3,2.7h-5.3v2.4h4.7v2.6h-4.7v2.7h5.3l-.3,2.7h-8.2v-13.1Z"/>
        <path class="st1" d="M96,37.3h-6.4v-2.8h11.9v.4l-6.9,9.8h6.6v2.9h-12v-.4l6.9-9.9Z"/>
        <path class="st1" d="M103.2,46c0-1,.8-1.8,1.8-1.8s1.8.8,1.8,1.8-.7,1.7-1.8,1.7-1.8-.8-1.8-1.7ZM103.6,43.1v-8.7c-.1,0,3.1,0,3.1,0v8.7h-3.1Z"/>
      </g>
    </g>
  </g>
</svg>